<svg width="16" height="16" viewBox="0 0 16 16" fill="none" xmlns="http://www.w3.org/2000/svg">
<path d="M8.00005 14.4254H7.99072C6.26872 14.3934 1.30005 9.90404 1.30005 5.65204C1.30005 3.60937 2.98338 1.81604 4.90205 1.81604C6.42872 1.81604 7.45538 2.86937 7.99938 3.63604C8.54205 2.87071 9.56871 1.81604 11.096 1.81604C13.016 1.81604 14.6987 3.60937 14.6987 5.65271C14.6987 9.90337 9.72938 14.3927 8.00738 14.424H8.00005V14.4254ZM4.90272 2.81671C3.51605 2.81671 2.30072 4.14204 2.30072 5.65337C2.30072 9.48004 6.99005 13.384 8.00072 13.4254C9.01272 13.384 13.7007 9.48071 13.7007 5.65337C13.7007 4.14204 12.4854 2.81671 11.0987 2.81671C9.41338 2.81671 8.47205 4.77404 8.46405 4.79337C8.31072 5.16804 7.69338 5.16804 7.53938 4.79337C7.53005 4.77337 6.58938 2.81671 4.90338 2.81671H4.90272Z" fill="#6C757D"/>
</svg>
